<?xml version="1.0" standalone="no"?>
<!DOCTYPE svg PUBLIC "-//W3C//DTD SVG 20010904//EN"
 "http://www.w3.org/TR/2001/REC-SVG-20010904/DTD/svg10.dtd">
<svg version="1.0" xmlns="http://www.w3.org/2000/svg"
 width="1414.000000pt" height="293.000000pt" viewBox="0 0 1414.000000 293.000000"
 preserveAspectRatio="xMidYMid meet">
<metadata>
Created by potrace 1.15, written by Peter Selinger 2001-2017
</metadata>
<g transform="translate(0.000000,293.000000) scale(0.100000,-0.100000)"
fill="#000000" stroke="none">
<path d="M5670 2919 c-55 -10 -158 -53 -195 -83 -19 -15 -19 -15 9 -16 40 0
143 -28 185 -50 61 -31 116 -85 143 -141 50 -103 52 -131 45 -798 -7 -691 -26
-1170 -54 -1394 l-6 -48 69 8 c38 4 149 8 247 8 l179 0 -7 30 c-9 44 -24 388
-24 555 -1 227 43 396 129 493 64 74 115 84 165 34 52 -52 56 -89 54 -572 -2
-474 2 -520 53 -618 58 -108 156 -167 291 -175 44 -3 104 1 136 8 71 15 183
69 239 114 50 40 57 34 -73 56 -85 14 -140 37 -179 76 -78 78 -91 188 -80 649
13 505 12 620 -9 681 -28 81 -70 139 -124 171 -42 25 -58 28 -128 28 -72 -1
-88 -5 -159 -39 -104 -50 -203 -149 -263 -261 l-42 -79 0 409 c1 585 -14 669
-139 810 -101 113 -294 174 -462 144z"/>
<path d="M8540 2701 c-61 -20 -114 -45 -147 -71 l-22 -17 42 -13 c116 -34 229
-134 287 -255 59 -121 71 -200 77 -496 l6 -255 -74 -13 c-80 -15 -248 -52
-316 -70 l-43 -12 0 -71 0 -71 43 7 c70 12 237 25 311 26 l68 0 -6 -177 c-8
-206 -33 -649 -43 -741 l-6 -63 89 8 c110 10 283 10 388 0 l78 -7 -6 26 c-32
126 -56 450 -56 753 l0 204 143 -7 c78 -3 173 -9 210 -13 l69 -6 -6 -191 c-10
-298 -26 -561 -41 -676 -7 -58 -13 -106 -12 -106 1 -1 43 5 92 13 94 15 412
13 449 -2 16 -7 18 -4 12 21 -9 44 -24 261 -38 544 -15 316 -17 1406 -2 1470
l10 45 -243 0 -244 0 6 -32 c7 -37 24 -505 25 -660 l0 -101 -87 -6 c-49 -4
-144 -11 -212 -17 -68 -5 -126 -8 -129 -4 -3 3 -9 141 -13 308 -5 232 -10 316
-23 362 -51 188 -182 326 -351 370 -80 20 -215 19 -285 -4z"/>
<path d="M4243 2486 c5 -125 28 -199 81 -269 74 -97 166 -134 378 -149 l148
-12 0 -445 c0 -570 -21 -1062 -50 -1194 -7 -33 -6 -37 8 -33 84 25 427 32 498
11 20 -6 21 -4 14 42 -24 147 -50 829 -50 1291 l0 342 124 0 c131 0 257 -13
316 -34 l35 -12 0 206 c0 113 3 220 8 239 l7 34 -292 -9 c-161 -5 -430 -9
-598 -8 -345 1 -431 12 -564 78 l-69 34 6 -112z"/>
<path d="M695 2534 c-16 -3 -93 -14 -170 -26 -104 -16 -189 -22 -330 -22
l-191 -1 8 -61 c40 -341 39 -1824 -2 -2007 -6 -30 -5 -37 5 -33 64 24 448 33
499 11 16 -7 18 -4 12 21 -19 93 -67 1059 -69 1394 -2 282 6 322 82 400 53 56
101 73 203 72 136 0 222 -70 249 -201 32 -153 -34 -302 -183 -413 -72 -53
-187 -114 -252 -133 l-40 -12 65 -6 c309 -32 542 -229 594 -502 45 -234 -16
-487 -149 -620 -144 -143 -390 -167 -677 -66 -43 16 -79 25 -79 22 0 -13 73
-118 108 -154 265 -278 778 -254 1060 48 167 178 252 465 211 714 -48 301
-257 552 -507 611 l-54 12 39 18 c161 72 271 330 234 546 -33 189 -152 315
-348 369 -57 16 -259 28 -318 19z"/>
<path d="M13585 2430 c-73 -179 -211 -321 -447 -461 -99 -59 -97 -52 -30 -156
63 -98 171 -151 281 -139 70 8 190 65 227 109 l27 32 -7 -410 c-7 -450 -19
-723 -41 -915 -8 -68 -13 -125 -12 -126 1 -1 25 2 52 8 58 12 424 17 473 6 32
-8 33 -7 28 20 -8 42 -24 280 -38 562 -15 321 -17 1404 -2 1480 l10 55 -247 0
-248 0 -26 -65z"/>
<path d="M10199 1982 c-31 -11 -66 -26 -77 -34 -20 -14 -19 -15 35 -42 111
-54 165 -117 206 -239 20 -59 21 -83 22 -502 0 -481 2 -502 59 -610 79 -151
230 -229 377 -195 125 29 234 116 289 231 l26 57 13 -61 c24 -114 72 -178 168
-223 126 -60 318 -28 452 75 l24 19 -29 15 c-68 36 -120 113 -163 242 -62 190
-88 480 -71 820 6 115 12 224 15 240 2 17 6 48 9 70 l5 40 -122 0 c-67 0 -167
3 -222 7 l-100 8 -3 -478 c-3 -513 -7 -564 -56 -659 -32 -63 -87 -113 -126
-113 -58 0 -98 56 -125 175 -4 17 -7 190 -6 385 1 390 -4 442 -57 554 -43 91
-100 149 -188 193 -71 35 -82 37 -187 40 -89 2 -124 -1 -168 -15z"/>
<path d="M2994 1963 c14 -36 36 -209 47 -363 18 -262 -4 -860 -41 -1118 -5
-37 -10 -70 -10 -73 0 -3 24 -2 53 2 28 4 131 8 228 8 l176 1 -15 73 c-12 56
-15 153 -16 442 -1 365 -1 371 22 428 62 152 182 231 247 161 44 -48 49 -98
41 -499 -10 -577 3 -655 123 -776 79 -79 147 -109 261 -116 129 -9 230 23 344
108 l58 44 -53 7 c-129 16 -218 60 -276 136 -75 99 -91 241 -75 661 19 480 16
552 -29 674 -26 70 -98 153 -154 178 -53 24 -141 24 -206 0 -107 -41 -194
-129 -266 -269 l-34 -67 6 105 c4 58 12 141 19 186 l11 80 -55 -8 c-80 -12
-318 -12 -368 0 -38 9 -43 8 -38 -5z"/>
<path d="M11884 1963 c14 -36 36 -209 47 -363 18 -262 -4 -860 -41 -1118 -5
-37 -10 -70 -10 -73 0 -3 24 -2 53 2 28 4 131 8 228 8 l176 1 -15 73 c-12 56
-15 153 -16 442 -1 365 -1 371 22 428 62 152 182 231 247 161 44 -48 49 -98
41 -499 -10 -577 3 -655 123 -776 79 -79 147 -109 261 -116 129 -9 230 23 344
108 l58 44 -53 7 c-129 16 -218 60 -276 136 -75 99 -91 241 -75 661 19 480 16
552 -29 674 -26 70 -98 153 -154 178 -53 24 -141 24 -206 0 -107 -41 -194
-129 -266 -269 l-34 -67 6 105 c4 58 12 141 19 186 l11 80 -55 -8 c-80 -12
-318 -12 -368 0 -38 9 -43 8 -38 -5z"/>
<path d="M2225 1956 c-140 -33 -241 -90 -334 -193 -147 -160 -224 -448 -192
-721 23 -206 94 -357 230 -493 69 -69 103 -94 171 -128 92 -45 193 -71 281
-71 71 0 196 32 262 67 61 32 213 181 244 239 l22 40 -72 -24 c-88 -30 -250
-41 -336 -22 -195 42 -334 188 -377 396 -20 96 -14 379 10 487 42 190 132 283
252 264 79 -13 126 -81 144 -209 32 -219 -83 -482 -262 -603 l-50 -33 36 -12
c45 -15 169 -14 232 1 80 19 172 69 227 124 100 98 137 202 137 381 0 274
-108 442 -324 500 -77 21 -230 26 -301 10z"/>
<path d="M7695 1956 c-140 -33 -241 -90 -334 -193 -147 -160 -224 -448 -192
-721 23 -206 94 -357 230 -493 69 -69 103 -94 171 -128 92 -45 193 -71 281
-71 71 0 196 32 262 67 61 32 213 181 244 239 l22 40 -72 -24 c-88 -30 -250
-41 -336 -22 -195 42 -334 188 -377 396 -20 96 -14 379 10 487 42 190 132 283
252 264 79 -13 126 -81 144 -209 32 -219 -83 -482 -262 -603 l-50 -33 36 -12
c45 -15 169 -14 232 1 80 19 172 69 227 124 100 98 137 202 137 381 0 274
-108 442 -324 500 -77 21 -230 26 -301 10z"/>
</g>
</svg>
